/* XPM */
static char *_547730081136[] = {
/* columns rows colors chars-per-pixel */
"64 64 163 2 ",
"   c #756661",
".  c #766762",
"X  c #776864",
"o  c #7C6C67",
"O  c #7E6F6A",
"+  c #A34927",
"@  c #A54A27",
"#  c #A74B27",
"$  c #A84B28",
"%  c #AA4C28",
"&  c #AB4D29",
"*  c #AD4E29",
"=  c #AF4E29",
"-  c #B84D24",
";  c #BB4F25",
":  c #BD4F25",
">  c #B04F2A",
",  c #BF5025",
"<  c #B2502A",
"1  c #B4512A",
"2  c #B5512B",
"3  c #B7522B",
"4  c #B8532C",
"5  c #BB542C",
"6  c #BC542C",
"7  c #BD552D",
"8  c #BF562D",
"9  c #B55733",
"0  c #B95833",
"q  c #BA5934",
"w  c #BC5A34",
"e  c #BE5B34",
"r  c #BF5B35",
"t  c #B95E3B",
"y  c #BB5F3B",
"u  c #BE603C",
"i  c #BF613D",
"p  c #C05126",
"a  c #C1572E",
"s  c #C2572E",
"d  c #C6572C",
"f  c #C4582E",
"g  c #C5592F",
"h  c #C7592F",
"j  c #C95A2F",
"k  c #C15C35",
"l  c #C25D36",
"z  c #C55E36",
"x  c #C65E36",
"c  c #C75F37",
"v  c #CA5B30",
"b  c #CC5B30",
"n  c #CD5C31",
"m  c #CF5E32",
"M  c #CF5E33",
"N  c #C96037",
"B  c #CF6035",
"V  c #C1623D",
"C  c #C3623D",
"Z  c #C4633E",
"A  c #C6643E",
"S  c #CB6138",
"D  c #CC6138",
"F  c #CE6238",
"G  c #CF6339",
"H  c #C8653E",
"J  c #C9653F",
"K  c #CB663F",
"L  c #D06136",
"P  c #D06238",
"I  c #D16339",
"U  c #D0633A",
"Y  c #D36439",
"T  c #D7663B",
"R  c #D1663D",
"E  c #D2673E",
"W  c #D9683C",
"Q  c #D96A3F",
"!  c #877671",
"~  c #8B7A75",
"^  c #CC6740",
"/  c #CF6840",
"(  c #C86A46",
")  c #C96B47",
"_  c #CD6C47",
"`  c #CE6D48",
"'  c #D06840",
"]  c #D16941",
"[  c #D36A41",
"{  c #D56B42",
"}  c #D66B42",
"|  c #D86C42",
" . c #D96D43",
".. c #DB6D43",
"X. c #DD6E43",
"o. c #DE6F44",
"O. c #D06E48",
"+. c #D26F48",
"@. c #D36F49",
"#. c #D9724A",
"$. c #DA724A",
"%. c #DB734B",
"&. c #DF754C",
"*. c #D77651",
"=. c #DA7852",
"-. c #DC7952",
";. c #DD7953",
":. c #DD7F5B",
">. c #E06F44",
",. c #E17045",
"<. c #E37246",
"1. c #E4754A",
"2. c #E0754C",
"3. c #E3774D",
"4. c #E5774D",
"5. c #E7784D",
"6. c #E8794E",
"7. c #EA794E",
"8. c #E07B54",
"9. c #E37C54",
"0. c #E47C54",
"q. c #E57D55",
"w. c #E77E55",
"e. c #ED7C50",
"r. c #E97F56",
"t. c #EA7F56",
"y. c #92817B",
"u. c #ED8157",
"i. c #EF8157",
"p. c #E1805B",
"a. c #E2815C",
"s. c #E4825C",
"d. c #ED865E",
"f. c #EF875F",
"g. c #F7865B",
"h. c #F7885D",
"j. c #E18663",
"k. c #E68864",
"l. c #E78965",
"z. c #E98A65",
"x. c #F48960",
"c. c #F78B61",
"v. c #F08D66",
"b. c #F98B61",
"n. c #FB8C61",
"m. c #FF9267",
"M. c #AB9994",
"N. c #AE9C97",
"B. c #B09E98",
"V. c #B19F9A",
"C. c #B3A19B",
"Z. c #B5A39D",
"A. c #B7A59F",
"S. c #B9A6A0",
"D. c #BAA8A2",
"F. c #BCA9A3",
"G. c #BEABA5",
"H. c #C1AEA7",
"J. c #C4B1AA",
"K. c #CEBAB3",
"L. c #D0BBB5",
"P. c #D5C0B9",
"I. c #D6C1BA",
/* pixels */
"N.V.C.C.Z.Z.Z.Z.Z.Z.A.A.Z.A.S.G.G.F.S.A.Z.Z.Z.Z.Z.Z.Z.C.B.M.M.M.N.V.C.C.Z.Z.Z.Z.A.C.A.C.A.A.D.G.G.D.D.Z.A.C.A.C.A.C.A.C.N.M.M.M.",
"H.K.I.I.I.I.I.I.I.I.I.I.I.I.I.I.I.I.I.I.I.I.I.I.I.I.I.K.J.A.C.A.H.K.I.I.I.I.I.I.I.I.I.I.I.I.I.I.I.I.I.I.I.I.I.I.I.I.I.L.J.A.C.A.",
"L.3.:.0.8.9.9.r.r.r.*.0.g.9.;.0.0.i.0.-.0.;.0.u.;.q.0.| Z f y.D.L.E 3.` #.#.6.#.` 3.6._ #.%.&.5.` %.#.5.7.@.` &.%.%.3.Z x n y.D.",
"I.1.V ' ^ / / / / ' Z ' ,.^ Z ' ' o.' Z | K | Z x x C s > s ! A.I.K W S ^ / T @._ ' ,.) ' ' ....Z ' ' X.X.@.( ' N l N 3 3 I ! A.",
"I.,.Z 7 3 5 5 a f 3 = 7 n 2 < 7 7 v 7 5 s 3 s 2 7 7 7 f < s o A.I.^ F 5 3 2 v a 7 < j 7 2 7 5 a 3 7 7 f s 7 = f a 3 a 3 3 B o Z.",
"I.o.w j 3 7 > v 7 & 7 a n < < 7 7 s < 7 7 7 s < 7 7 6 f 3 5   A.I.{ K 5 3 7 3 f 3 < n 5 2 7 7 a 3 7 7 8 v 5 = a 6 3 a < 3 G . Z.",
"I.F w f & 7 = n s & 7 7 F = = 7 5 s 2 7 7 7 s 3 7 7 7 7 7 3 . C.I.' l 6 5 7 a b < < b 5 2 7 7 a < 7 7 7 v 5 = 7 6 3 a 3 6 B . A.",
"I.F l 3 3 a < f 5 7 < 3 m 5 7 2 5 s 5 7 5 5 s > 7 7 7 7 7 3 . A.I.' l 6 3 7 f P = = b 5 = 7 7 s 2 7 7 5 L 2 = a 6 5 a 3 3 B . C.",
"I.U l 7 3 a > a 5 5 = 7 j 7 3 < 7 7 7 7 v 8 s 3 7 7 7 a 5 4 . Z.I.' x 6 2 7 v B & = b 3 7 a 2 s 3 7 7 5 n 3 = n f < 7 7 7 f . A.",
"I.B l 3 3 6 7 n 3 3 = 7 j s 7 = 7 7 7 7 v v a < 7 f d 3 5 4 . Z.I.^ q a 2 7 k n & < n 2 5 5 5 s 3 7 7 7 B % 7 j s = 7 7 7 s   Z.",
"I.^ x 6 3 7 7 f 3 a 5 5 v s 3 = 7 7 7 7 v s & 7 7 a a 3 7 2 . Z.I.' y a 1 7 v n 3 > 3 7 5 5 5 s 3 7 7 a j < 6 f j = 5 7 7 8 . A.",
"P.x 0 7 3 a 7 f 7 < 3 5 f 7 5 = 7 7 7 7 f s > 7 7 a 7 > e v . Z.I.{ 9 7 1 5 v v < > 7 a 4 7 1 7 7 7 7 5 a 3 6 k j < 7 7 7 7 . C.",
"K.x w s < 7 7 5 f 5 = 3 s f 5 = 7 7 7 7 j s & s 7 5 7 = 5 v   C.L. .= 7 > 7 s s 3 > 5 s 4 7 2 7 f s 3 3 v 3 5 8 j > 7 7 7 s . C.",
"J.v = s 3 7 7 7 n v = < 7 n 7 & 7 7 7 7 f v < f s 5 v 7 5 s X B.J.F < v 5 7 2 n 3 > 5 s 4 7 4 7 a a 3 7 7 7 5 s f = 7 7 7 7 . C.",
"S.s & s 3 7 5 7 v f & & n f 7 % 8 s 5 7 f n > 7 7 2 a 5 2 v O N.S.a 3 a 5 2 3 B 3 < 5 s 2 s 5 5 s s 3 7 7 f s 4 n > 7 7 7 3 O N.",
"A.y.! o X .   . . . . . .       . . . . . . . . . .     . O ~ C.C.y.! o X         .   . . .     . . . . . . . . . . . . X O ~ V.",
"F.F.S.A.C.A.C.A.Z.Z.Z.Z.V.M.M.M.N.C.C.C.C.A.C.A.A.C.A.C.A.A.D.G.G.F.A.A.Z.Z.Z.Z.A.C.A.C.N.M.M.M.N.C.C.C.C.A.C.A.C.A.A.C.A.A.D.F.",
"I.I.I.I.I.I.I.I.I.I.L.L.J.A.C.A.H.K.P.I.I.I.I.I.I.I.I.I.I.I.I.I.I.I.I.I.I.I.I.I.I.I.P.K.J.A.C.A.H.K.I.I.I.P.I.I.I.I.I.I.I.I.I.I.",
"9.0.a.9.0.0.&.#.@.| l y U 6 y.D.L.r.p.d.f.m.z.d.n.j.n.d.z.h.n.x.v.k.n.v.c.c.k.h.a.9.%.%.E G y.D.K.{ -.9.i.u.u.9.0.;.u.s.q.9.7.7.",
"r r r N S N S x r F 2 # a a ! A.I.{ C x N ,.K C ,.t { { Z X.' o...K ' Z | X.Z ' K C N 7 3 v ! A.I...Z x G N l l S q U N e l I ..",
"5 s 3 7 7 7 s a & n 2 & a s o A.I...V 7 5 j 5 < n % f 7 < j 4 5 s > 3 5 7 j # 7 6 6 7 7 s f o A.I.U V 7 j 5 s 3 5 7 f 6 3 7 3 f ",
"3 7 < 7 7 5 v 7 2 v f & 2 v X C.I...i 7 5 f 5 < j # j a < j 5 5 s 7 s 3 7 j # 7 f f 3 7 8 s . A.I.U i 5 j 3 v > > 7 f 7 3 5 7 n ",
"3 8 < 7 7 7 a = 3 M a & 5 v   A.I.X.i 7 3 3 f 3 n @ 3 s < v 7 3 < s s & < n @ 7 s s 3 7 8 s . Z.I.U Z 3 j 7 n 5 = 5 f 7 3 7 5 j ",
"3 8 3 7 7 7 s < 3 L < = 7 f   A.I.,.V 3 s < j & B + 7 n < f 7 7 5 3 B 5 3 n 3 3 6 7 3 7 8 s . Z.I.U 0 5 j 7 j 5 & 7 f 5 < 7 5 n ",
"5 5 < 7 7 7 s < 5 n 5 > 5 v   C.I.,.u 5 a > j 3 B $ 7 j = 7 7 s 5 5 j 5 < E < < 5 7 < 7 8 , . Z.I.P = 3 v 7 s 7 & 3 B 3 = a f 7 ",
"f v > 7 7 7 s 3 5 7 5 > 2 v   A.I.,.u 5 7 3 v > f = 7 f > 7 7 5 s 3 L < < U > 1 5 f 7 < 8 5 . Z.I.l > a v 5 s s + 3 f s = 5 7 7 ",
"j 3 < 7 7 5 s 3 7 a n & 7 5   Z.I.o.i 3 a 3 5 > 3 & 7 7 2 7 7 7 5 5 j 3 > n < 5 4 s 5 < 4 - . Z.I.N 3 7 v 5 f s & 3 f 2 3 f 6 = ",
"v 5 3 7 f f f 3 7 7 v 3 2 5 . Z.I.| K < 7 3 a 3 7 3 j 7 2 7 7 2 s = L 3 > G s 3 = n < < 5 , . Z.I.x > 7 v 5 5 f = 3 s s 7 5 5 3 ",
"B 5 < 7 s 7 = 7 7 j j > < 5   C.K.%.x 7 a < a 3 s > f 7 3 5 7 v j = R > < B 7 3 $ v 5 < 4 ,   C.K.x 3 7 v 7 3 n & 8 n 8 3 7 5 3 ",
"j 7 3 7 s 5 7 s < f f 3 < 5 X B.J.o.x 3 7 7 7 7 a 7 a 7 3 7 7 s f & L 6 > f s 5 & v 5 < 5 , . V.J.x 3 7 5 < 3 n % 7 v 7 3 7 5 < ",
"n 7 3 7 s 7 6 7 < s j < < 7 O N.A.l 6 3 > a 7 < 7 7 f - < 7 7 s j % f 7 > p f 5 $ , 5 > 5 , O B.A.7 3 7 7 < 5 n & 5 j 8 3 3 5 = ",
". . . . . . . .   . . . X O ~ C.Z.y.! o       .   .   .   .     . . . . . . . . . . . X X o ! V.A.y.! o X . . . .   . . . .     ",
"B.V.C.C.Z.Z.Z.Z.Z.Z.Z.A.Z.S.F.G.F.D.S.Z.Z.Z.Z.Z.A.C.A.C.B.M.M.M.N.C.C.C.A.C.A.C.A.C.A.C.A.A.D.G.G.D.D.Z.A.C.A.C.A.C.A.C.N.M.M.M.",
"G.K.P.I.I.I.I.I.I.I.I.I.I.I.I.I.I.I.I.I.I.I.I.I.I.I.P.K.J.A.C.A.G.K.I.I.I.I.I.I.I.I.I.I.I.I.I.I.I.I.I.I.I.I.I.I.I.I.I.L.J.A.C.A.",
"K.9.p.9.;.9.9.u.r.0.*.0.g.;.;.0.0.g.0.-.0.9.0.r.-.9.9.| Z s y.D.L.' 3.` %.%.6.#.` 3.6._ #.%.&.5.` %.#.5.7.@.` &.%.%.3.Z x n y.D.",
"I.1.V / / / / / ' ' Z ' ,.^ Z ' ^ ..{ Z { ^ { Z x C N s < s ! S.I.K W S Z E T @._ ' ,.( ' ' ....Z ' ' X.X.@.( ' N l N 3 3 I ! A.",
"I.,.V 7 3 5 4 s v 4 = 7 n 3 > 7 5 j 7 5 a 3 a 3 7 7 7 f < s o Z.I./ B 5 2 4 j s 7 < j a 3 7 5 a 3 7 7 f s 7 = f a 3 a 3 3 B o Z.",
"I.X.k j < 7 > v 7 & 7 7 n 3 < 7 7 a < 7 7 6 d 3 7 7 6 f < 5 X A.I.' ^ 5 5 7 3 s < 3 j 7 3 7 7 a 3 7 7 8 v 5 = a 6 3 a < 3 G . Z.",
"I.F e a & 7 < v s & 7 7 P > = 5 7 f 3 7 7 7 a 3 7 7 a 7 7 4 . Z.I.' l 6 5 7 s v < > b 5 < 7 7 a < 7 7 7 v 5 = 7 6 3 a 3 6 B . A.",
"I.B l 3 3 s < f 5 7 < 4 n 5 5 3 5 f 3 7 7 3 a > 7 7 7 7 7 2 . Z.I.' l 6 3 7 f U = = b 5 = 7 7 s 2 7 7 5 L 2 = a 6 5 a 3 3 B . C.",
"I.G l 5 3 a > a 5 5 > 7 j 6 3 < 7 7 7 7 f 7 f 2 7 7 7 7 7 4 . Z.I./ C 6 < 7 v B & > v 3 7 a 2 s 3 7 7 5 n 3 = v f < 7 7 7 f . A.",
"I.F l 5 3 5 7 n 3 3 = 7 j a 5 = 7 7 7 7 v v 7 3 7 f s 5 7 4 . Z.I./ 0 a 5 7 s B & < v 4 5 5 5 s 3 7 7 7 m $ 7 j s = 7 7 7 s   Z.",
"I.K l 7 3 7 3 j 3 7 5 5 j a 5 = 7 7 7 7 v a & 7 7 s s 3 7 < . Z.I.E t a 2 7 j n < > 3 7 5 5 4 s 3 5 7 a n > 7 f j = 5 7 7 8 . A.",
"I.x 0 a 3 7 7 j 7 < 3 5 f a 5 = 7 7 7 7 j a = 7 5 s 7 3 s v . Z.I...9 6 2 7 f j 3 > 5 s 4 5 3 7 7 7 7 7 a 3 6 a j < 7 7 7 7 . C.",
"L.x w a 3 7 7 2 f 7 > 3 a f 3 = 7 7 7 7 j f $ a 7 7 7 = 5 s   C.K. .& 8 > 7 s s 3 > 7 s 4 7 3 7 f f 3 5 v 1 5 a j > 7 7 7 s . C.",
"J.j > a 3 5 7 5 n v = 3 a n 7 & 7 7 7 7 f v < f s 3 f 7 5 v X B.J.F < v 7 5 3 n 4 > 5 8 4 7 4 7 a a 2 5 5 5 7 k f = 7 7 7 7 . C.",
"A.d & a 2 7 7 7 v s # = n f 7 & a s 5 7 f n > a 7 3 k 5 2 v O N.S.s 3 s 4 4 < B 3 > 5 s 3 s 4 5 s s 2 7 7 v 8 5 n = 7 7 7 3 O N.",
"Z.y.! O X         X   . .       . . . . . .           X X o ~ C.C.y.! o X . . . . . . . . .     . . . . . . . . . . . . X O ~ V.",
"F.F.S.A.A.A.Z.Z.Z.Z.Z.C.B.M.M.M.N.V.C.C.C.A.Z.Z.Z.Z.Z.Z.A.A.D.F.H.F.A.A.Z.Z.Z.A.A.C.A.C.B.M.M.M.B.V.C.C.C.A.C.A.C.A.A.C.A.A.D.F.",
"I.I.I.I.I.I.I.I.I.I.I.K.J.S.C.A.H.L.P.I.I.I.I.I.I.I.I.I.I.I.I.I.I.I.I.I.I.I.I.I.I.I.I.K.J.A.C.A.H.K.I.I.I.I.I.I.I.I.I.I.I.I.I.I.",
"0.0.p.0.0.0.3.#.+.W l u G 7 y.D.L.r.p.d.d.m.z.d.n.j.n.d.v.n.x.h.v.z.c.z.b.x.k.h.p.0.%.%./ G y.D.K.| -.0.i.u.0.9.0.9.u.a.q.q.e.5.",
"k l w c N N N N e F 2 $ 7 7 ! S.I.{ V x x <.K Z ,.t | ' V o./ X...K / K ..X.V ' Z N N 7 3 j ! S.I. .Z x P B C l N q F N e C U W ",
"2 a < 7 7 s s 8 % n 4 & s s O Z.I...i 7 7 b 5 > n % f 7 < j 3 5 a > 3 6 7 v @ 7 7 7 7 7 s f o C.I.U V 7 j 5 s 3 7 7 f 3 3 6 3 f ",
"5 a 3 7 7 4 f 7 3 n s $ 5 v . Z.I...i 7 5 f 5 = j # j s < j 5 5 a 6 a 3 7 v @ 7 v s 4 7 8 s X A.I.U i 7 v 2 v = = 5 j 7 3 5 6 n ",
"2 7 3 7 7 7 s = < B s & 5 n . A.I.X.i 7 5 3 f 3 n @ 3 f < n 6 3 3 a a % 1 v # 5 s s 3 7 8 s . Z.I.G V 3 j 7 n 7 = 5 j 7 3 7 6 j ",
"5 7 < 7 7 7 s 3 3 B < = 5 s . C.I.,.i 3 a < j $ L + 7 j < f 7 a 5 3 m 7 1 M 2 3 5 7 3 7 7 s . Z.I.U 0 5 j 7 v 5 & 7 f 3 3 7 3 n ",
"5 5 3 7 7 7 a < 7 n 3 < 5 f . A.I.,.i 3 a 3 j 3 B & 7 v = 7 7 s 5 5 j 3 3 R < < 5 7 < 7 7 , . Z.I.P > 3 f 7 a 7 & 3 m 3 > a f 7 ",
"f f = 7 7 a a 3 5 7 5 < 2 j   A.I.,.y 7 7 3 j = f & 7 f > 7 7 5 7 3 L < = R = 3 3 v 7 < 7 7 . Z.I.l > a n 5 f a + 5 a a = 5 7 7 ",
"j 5 > 7 7 3 f 3 7 s n & 7 3   A.I.X.i 3 a 3 3 3 7 = 5 5 2 7 7 7 6 5 j 3 < n < 5 2 f 5 < 3 ,   Z.I.x 3 7 v 5 f a & < f 5 5 f 6 = ",
"b 5 3 7 f f a 3 7 7 v 3 3 5   Z.I.| K < 7 3 a 3 5 3 v 7 2 7 5 5 f > L 3 = F a 3 = v 3 < 5 , . Z.I.x > 7 b 5 7 f = 3 a a 5 5 5 3 ",
"B 5 3 5 a 7 = 7 7 v v < < 5   C.L.#.x 7 s < s 2 a = v 5 3 5 7 f j = R = < n 7 2 $ j 5 < 5 ,   C.L.x 3 a v 7 3 n = 7 n a 3 7 5 < ",
"b 7 3 7 a 7 7 a < s f < < 5 X B.J.X.N 3 7 7 7 5 a 7 7 5 3 7 7 a f & L 5 = v k 5 & v 5 < 5 , . B.J.x 3 7 7 < 2 n # 7 v 7 3 7 5 3 ",
"b 7 < 7 f 7 7 7 = f v < 3 7 O N.A.l 7 3 = 7 7 < 7 7 a - 3 7 7 s j $ f a > p f 6 $ , 5 < 5 - O N.A.6 < a 7 < 5 n & 5 v 7 5 < 5 = ",
"    X   . .     X       X O ~ V.Z.y.! o X . . .   X     . .     .   . .   .     . . . . X O ~ V.Z.y.! o X .   X       X         "
};
