/* XPM */
static char *_547728918220[] = {
/* columns rows colors chars-per-pixel */
"64 64 247 2 ",
"   c #171C1C",
".  c #241E19",
"X  c #27221D",
"o  c #1D1E22",
"O  c #1E1C29",
"+  c #221E23",
"@  c #1E2225",
"#  c #1E232A",
"$  c #19262B",
"%  c #1F2A30",
"&  c #222325",
"*  c #2A2624",
"=  c #2C2926",
"-  c #23252A",
";  c #2A262C",
":  c #252A2D",
">  c #2C2B2B",
",  c #242C27",
"<  c #322D2B",
"1  c #352928",
"2  c #29322B",
"3  c #34302D",
"4  c #3A322D",
"5  c #252B32",
"6  c #2C2D33",
"7  c #292A36",
"8  c #322E33",
"9  c #392C36",
"0  c #2D3135",
"q  c #2E333A",
"w  c #2A3737",
"e  c #333234",
"r  c #3B3434",
"t  c #3B3935",
"y  c #33343A",
"u  c #3B363A",
"i  c #34393C",
"p  c #3C3A3B",
"a  c #343A34",
"s  c #1D291F",
"d  c #432D28",
"f  c #45342B",
"g  c #423B3C",
"h  c #463937",
"j  c #573D38",
"k  c #51332A",
"l  c #623E32",
"z  c #3E453A",
"x  c #44433B",
"c  c #4B433C",
"v  c #464336",
"b  c #554238",
"n  c #694A3D",
"m  c #2A3945",
"M  c #383A43",
"N  c #233E51",
"B  c #1C3846",
"V  c #423E43",
"C  c #493B41",
"Z  c #1E4153",
"A  c #3B454D",
"S  c #264552",
"D  c #384854",
"F  c #2A4148",
"G  c #395869",
"H  c #2E5167",
"J  c #3D6376",
"K  c #2D637B",
"L  c #434244",
"P  c #4B4345",
"I  c #4B494C",
"U  c #48464A",
"Y  c #544443",
"T  c #584A4A",
"R  c #4B4A52",
"E  c #544E53",
"W  c #584F52",
"Q  c #555256",
"!  c #5C5254",
"~  c #5A555C",
"^  c #59575C",
"/  c #4E5153",
"(  c #644A47",
")  c #68524D",
"_  c #665958",
"`  c #755B56",
"'  c #74514B",
"]  c #78625C",
"[  c #6F645E",
"{  c #5B5D62",
"}  c #4D5970",
"|  c #645D62",
" . c #42677A",
".. c #55636D",
"X. c #69666A",
"o. c #786968",
"O. c #787576",
"+. c #716D72",
"@. c #865C4D",
"#. c #876457",
"$. c #986859",
"%. c #8B6751",
"&. c #856B67",
"*. c #976D62",
"=. c #987976",
"-. c #8D7671",
";. c #A67768",
":. c #AD7D71",
">. c #A36359",
",. c #97837B",
"<. c #A9837A",
"1. c #B78A7B",
"2. c #B78975",
"3. c #C48F7E",
"4. c #346D8D",
"5. c #2875A9",
"6. c #48758A",
"7. c #467796",
"8. c #4B728C",
"9. c #72788A",
"0. c #857B86",
"q. c #0F8DB2",
"w. c #328DAF",
"e. c #54869C",
"r. c #4695BD",
"t. c #528DAF",
"y. c #78909F",
"u. c #1997C7",
"i. c #1D9ED7",
"p. c #2A99CA",
"a. c #3B9BC6",
"s. c #319ED5",
"d. c #2C99D3",
"f. c #3AA4CA",
"g. c #3AA4D4",
"h. c #2AA2D0",
"j. c #459BC6",
"k. c #549DC6",
"l. c #459CD2",
"z. c #46A3CB",
"x. c #43A3D2",
"c. c #49A8D7",
"v. c #54A9D6",
"b. c #56ABD0",
"n. c #988785",
"m. c #8D8989",
"M. c #A78A87",
"N. c #AC938D",
"B. c #B89589",
"V. c #A89696",
"C. c #B79B95",
"Z. c #B18D89",
"A. c #B5A19B",
"S. c #9A9AA3",
"D. c #A7A4A8",
"F. c #B7A8A7",
"G. c #B4AEB1",
"H. c #B6B5B9",
"J. c #BAB7AE",
"K. c #9EA1B4",
"L. c #CC9C8C",
"P. c #C89887",
"I. c #D39C8C",
"U. c #C79D95",
"Y. c #D59F91",
"T. c #CCA28B",
"R. c #D5A38E",
"E. c #C9A599",
"W. c #D4A394",
"Q. c #DBA595",
"!. c #D5AA9C",
"~. c #DCAC9C",
"^. c #D7A898",
"/. c #D9B29C",
"(. c #E3AC9C",
"). c #E4A798",
"_. c #E1B29D",
"`. c #C9AAA4",
"'. c #D6ADA4",
"]. c #D4B2A4",
"[. c #DCB3A4",
"{. c #DBB4AB",
"}. c #DCBAAB",
"|. c #D6B5A9",
" X c #DCBBB3",
".X c #D7BAB5",
"XX c #CBB5AD",
"oX c #E3AEA1",
"OX c #E4B3A4",
"+X c #E3BBAC",
"@X c #EABBAB",
"#X c #E8B6A7",
"$X c #E3BDB3",
"%X c #EABDB3",
"&X c #F1BCB0",
"*X c #DBC4B8",
"=X c #DEC2AE",
"-X c #E6C2AD",
";X c #E5C3B4",
":X c #EAC2B3",
">X c #EBC5BB",
",X c #E6CABC",
"<X c #ECCABD",
"1X c #E6C6B9",
"2X c #F3C6B9",
"3X c #EACCB8",
"4X c #B7B8C4",
"5X c #89AFC4",
"6X c #BDC8D2",
"7X c #C8C8CB",
"8X c #C9CDD5",
"9X c #D7D8D9",
"0X c #DDCDC8",
"qX c #ECCDC3",
"wX c #E6CBC5",
"eX c #F2CDC4",
"rX c #F8CFC9",
"tX c #EDD1C5",
"yX c #EDD2CA",
"uX c #E6D6CD",
"iX c #F1D1C5",
"pX c #F3D5CB",
"aX c #F9D5C9",
"sX c #ECD7D2",
"dX c #F6DAD3",
"fX c #DDDFE3",
"gX c #CCDAE7",
"hX c #DEE2E5",
"jX c #D6E4EE",
"kX c #DCEAF3",
"lX c #E2E3E5",
"zX c #E2E6EA",
"xX c #E6E9ED",
"cX c #E9ECEE",
"vX c #E8E8E7",
"bX c #F1ECEC",
"nX c #ECF2EB",
"mX c #EAEEF1",
"MX c #E6ECF2",
"NX c #EDF1F4",
"BX c #ECF5FB",
"VX c #E5F1F9",
"CX c #F1F3F5",
"ZX c #F2F5FA",
"AX c #FBFAF8",
"SX c #F4F1EF",
"DX c #E4E0DE",
/* pixels */
"mXmXmXmXmXmXNXNXNXmXmXmXmXcXxXzXbXG.h g y y e 8 e > e g g y 6 i 5.j.c.c.c.c.g.g.h.p.p.h.z.v.q.i.s.s.a.a.c.7.5 : 5 5 5 5 6 - # @ ",
"mXmXNXNXNXmXNXNXmXmXmXmXmXmXxXzXcXG.9 V e e r 8 e ; 3 g V e 6 m 4.j.b.c.g.c.f.g.s.h.s.h.l.v.q.u.p.h.a.a.c.7.q w : : 5 : : - @ o ",
"NXNXNXmXNXmXNXnXmXmXmXmXNXxXxXzXmXG.9 p e y e < 8 > 6 g V u q q 5.w.b.c.c.g.g.f.h.g.s.h.c.v.q.p.s.s.a.a.x.7.7 i 5 : - - - - # @ ",
"NXNXNXNXNXNXmXNXNXmXmXmXxXxXcXzXbXG.h g y u e 8 e > 8 p M y w M 5.z.v.c.x.c.c.c.w.f.f.p.c.x.q.u.f.g.x.f.x.6.5 0 5 : - # # - - , ",
"NXNXNXNXNXNXNXNXNXNXNXmXNXxXxXzXSXG.g g y y 9 8 9 6 e g L i y q 4.t.b.b.t.e.4.K K 6.4.w.k.k.u.u.f.g.z.z.c.8.5 : 5 : - # - - - - ",
"NXZXNXNXNXNXNXNXNXNXnXNXNXxXxXxXCXG.r g e e e 8 8 8 u L L p 6 e G  .} S w % $ % # 7 m N } 4.q.p.c.s.j.j.c.7.& % # : # @ @ @ @ @ ",
"CXNXCXNXNXNXNXNXNXmXNXmXmXmXmXxXbXG.r g e a y r 8 6 y p y e 6 y , 2 @ @ X . X = 7 5 ; o 7 D 5.p.c.g.c.z.c.4.- : - # # # # @ @ o ",
"CXNXNXCXCXnXNXnXMXmXxXmXNXmXNXxXbXG.u g y p p u q 5 : - & o * 9 < : $ % 5 % $ $ $ O * @ ; N q.u.z.x.z.z.z.8.; 7 # : , # , # @ o ",
"SXCXSXCXZXCXCXcXNXmXNXNXNXmXmXmXmXD.f h C ) I ; 7 - 7 O o @ , > u 7 7 m % $   : 5   # # F S 4.i.c.x.j.l.v. .7 5 # # # - - & - O ",
"BXVXmXNXNXBXBXBXCXnXnXcXcXvXvXvXnXJ.r f T C ; 0 7 q 7 7 O o : q ; 0 6 8 A 0.O.{ M 5 6 - F D 4.u.x.c.a.l.v. .- - 5 5 - & # # o o ",
"BXZXAXCXZXNXNXmXmXVXMXVXNXNXmXMXnXV.P h h 9 - 5 m M - 7 5 # 5 q > , - - i { Q L M a u 9 m m H h.x.x.a.x.b.J - 5 0 5 , & - @ o o ",
"DXvXbXSXAXAXAXAXAXAXAXZXZXMXMXzXAXm.h j 4 h u y M R M { X.L e ; 0 : > 5 ; : & ; % : 9 C U 7 Z w.x.f.j.x.z.G 5 5 7 0 5 : & @ @ @ ",
"[ | | | O.,.m.V.G.*X7X7X9XDXbXSXSXn.h Y g C u V u E P ~ _ 8 < e : : q 5 7 7 5 ; # , 1 9 V C S w.x.f.j.z.z.G : 5 : : 6 : & O & & ",
"y.+.../ D m m m , 3 4 e g P W ! +.E 9 T C Y P 8 9 Y Y ! ! r < < : : 8 O O - - & & w 9 7 u V R 4.c.z.z.c.j.H - 5 : 6 6 : - o o o ",
"BXVXkXjXgXgX8X6X4X4XK.S.9.9.X...R R 7 C C I Q r V p 9 e e 6 > : > 6 i ; ; + & , & 2 i M y c R 8.b.j.z.k.r.H & % 6 : : , @ & o   ",
"xXzXlXzXnXBXVXkXVXkXVXVXVXVXkXkXVX6XU M ~ I u U M M M u 0 0 5 5 , 3 p ; + & @   * @ : U U Y R 8.v.z.k.l.a.H - % 0 : # @ - & & & ",
"NXxXzXzXcXxXNXxXmXxXxXxXxXhXhXhXnX8Xz V Q Q E ~ Q R M e y u 3 8 6 > : 3 o - + - , ; 3 u u C U E t.b.j.z.z.S . 7 5 - - @ @ @ @ @ ",
"MXxXzXzXzXxXxXxXzXnXNXmXmXhXhXhXnX9XI W _ ~ | X._ { Q M L U M ; & e 0 > & - + + = e z < 8 g I I  .t.k.v.w.N . 7 : - @ @ @ @ @ @ ",
"zXzXzXzXzXhXzXxXhXmXmXmXxXhXhXhXDX7XW ^ +.X.X.+._ { ~ ~ ~ R U V U x > & < * 1 < = e g 4 h T T U m 8.t.r.j.N . : : - - - # - @ @ ",
"NXNXNXnXNXNXxXNXzXxXmXmXmXxXxXxXfX4Xx ^ +.X.| | E ~ | | ~ Q Q ~ c r < 4 r 4 Y 4 4 4 h j _ Y h h 1 D  .e.k.Z   : : : - & & @ @ @ ",
"NXxXcXMXnXNXxXcXmXxXmXmXcXNXMXnXzXH.V E | E Y C C ~ | E C | o._ h c ! Y k h ` j j T ' ' ) j f 4 d < m 6.t.Z . : - - - @ @ o o o ",
"xXcXzXxXMXxXxXhXNXxXzXxXxXNXxXzXmX7XR Q R g V M g P I P C _ o.` ] ) o.` C ( #.( ' #.#.` j h h e 1 > 2 H e.N X : @ + + @ & & & @ ",
"NXNXmXNXNXNXNXNXxXzXzXzXcXzXzXzXSX8X^ | E p u g V 8 9 g C ( ] &.` ` =.=.-.M.;.#.*.*.$.#.k k t 3 3 3 3 A 7.m * # @ + o @ @ @ & o ",
"MXmXnXNXNXMXNXNXNXNXNXNXNXxXzXzXlX7XR | | P g r u y p p 1 j @.*.*.C.XXZ.Z.eX'.Z.L.P.P.Z.( k 4 a w 3 3 A 7.m . O o o o o + o o o ",
"NXNXNXNXNXmXmXMXNXMXcXcXxXzXhXhXDXXXQ { U U 8 g a r f j ' ' Z.;.0XsXsXuXwXwXpXeX<X<X{.W.%.( 4 = 9 e 9 } 6.D h 4 r r t e 3 3 > : ",
"ZXCXNXZXZXZXZXZXZXNXNXNXNXNXmXxXxX4X{ { E E g 8 r ) j =.U.Z.`.Z.yXdXsXsXsXdXdXeX=XC.<.:.$.@.n f 1 f j ..J m h A r r t t t t a y ",
"NXNXNXcXmXNXNXmXNXcXcXMXNXMXzXhXzXH.~ E ~ W C 1 j =.L.{.qXdX&X2XqXpXyXyXeXwX'.Z.*.*.1.2.>.%.%.#.b l ( ..6.M d % < < < > > = * & ",
"NXmXxXxXMXmXmXcXzXcXxXzXxXhXhXfXzXH.| +.o.| | E &.`.U.U.:.M.1.P.{.1X<XeXqX%XU.:.N.Z.U.W.T.3.2.*.' @.=.8.8.M d 2 < < < = , X .   ",
"ZXNXxXNXmXNXmXmXNXNXNXcXxXzXhXfXfXG.o.n.0.o.+.-.Z.:.;.B.A.A.B.B.!.+X%X<X>X|.W.P.C.,.#.=.P./.P.;.n >.M.e.6.C 4 a < < < < = * & & ",
"BXNXNXxXmXmXmXMXcXNXNXMXcXcXzXfX8XD.o.Z.=.] &.M.M.<.].`.C.B.A.].^.[.+X<X%X^.W.L.`.N.M.B.E.].P.*.%.>.0.e.4.e 1 = * * * * & * X X ",
"nXNXxXcXmXmXMXMXcXMXcXcXmXMXlX9X7XD.o.0.M.=.0.C.C.`.B.M.,.,.*X`.W.W.|.2X>X[.!.(.!.E.!.=X;X-XQ.:.@.:.y.e.K $ = 4 < = = > , * @ @ ",
"NXNXNXNXmXNXNXNXcXcXcXcXmXmXfX7X7XD.&.0.V.N.C.C.`.'.'.E.M.N.`.|.[.!.W.+X-X^.^.OX#X[.;X+X3X_.Q.:.#.;.8.w.4.z 2 1 = < < > = * * & ",
"mXNXxXxXxXNXNXNXcXxXzXxXMXzX9X7X8XD.-.o.0.`.V.A.`. X%X%X$X$X[.@X#XR.I.#X&X).W.OX#X%X{.%X>X&XP.2.&.-.t.r.6.5 3 3 3 3 = < = = 3 > ",
"CXBXNXNXNXCXNXNXNXNXNXNXmXmXjX9X8XS.+.o.` F.M.`.XX.XeXqXwX$X$X@X_.W.I.(.@X#X_.-X2XeX>XwX%XoXI.P.=.&.7.j.6., 0 = > = = = * = 8 = ",
"NXCXNXNXNXNXNXcXNXZXNXNXmXmXMXzXfXD.+.| C 0.C.Z..X{.$XeXqX>XwX%X#X).R.#X2X#X(.#X2XaX<X3XoXoXL.3.-.o.e.k.6.- e = = < = < = * 4 ; ",
"NXNXNXmXNXNXcXxXmXmXmXmXMXmXMXhXzXD.X.~ 9 ` F.<.XX|.$X>XrXwXeX%X:X).R.(.#X_.R.).+X2X3X@X'.oXP.$.` &.y.k.J X 3 1 > 1 < 3 = ; 8 1 ",
"mXNXNXNXNXNXNXMXmXmXMXcXMXmXcXhXzXD.X.~ C &.0.W.`.{.{.eXrXeXeX%XoXY.P.Y.OX_.Q.W.).(.#X_.).).3.$.' n.5Xk.G & < 1 = = = = * & < = ",
"NXNXNXmXNXNXNXNXmXNXmXcXNXNXzXfXzXH./ E 0.-.&.M.N.`.oX&X2X%X%XoX).P.P.@X2X#XW.(.(.).).).I.3.:.$.( n.5Xk.J > > = * = * = X * 8 6 ",
"NXNXMXxXmXmXNXmXSXmXcXcXxXxXzXhXhXG.9 W F.C ] C -.`.'.'.#X'.~.(.#XI.I.2XrXOXW.#X&X3.).).I.2.2.%.' o.e.t. .> : > = = * = * = r 8 ",
"NXNXNXxXcXmXmXmXmXmXMXcXxXzXhXhXNXD.1 X.M.C +.C o.U.U.I.~.W.(.#XoX).Q.W.~.(.(.#X).3.).3.I.3.1.%.] ] e.r. ., 8 < < = * = * = u 1 ",
"NXNXNXNXNXZXNXNXNXNXNXNXNXNXxXzXmXS.> I n._ ) T ` E.U.U.[.OXL.~.Q.oX&X&X:X+X(.).I.B./.[.I.R.2.) ' W 7.j. .= 3 ; * = > = = > > * ",
"cXxXxXxXxXNXNXxXxXmXNXxXxXxXxXhXNXm.p t O.o.! b -.M.}.W.+X-X~.3.Y.I.Y.$X,X*X{.OX).L.-X:XQ.Q.%.j j P 7.r.G 1 e 2 = < > = * * & & ",
"NXNXcXNXNXNXNXNXNXNXNXNXNXxXxXhXcXm.L e _ O.X.o.( ` XX{.'.2X2XR.'.$XeXwXsXdXrX%X(.~.-X@XR.T.n b j g 8.r.G * 6 : & & & * & ; * & ",
"NXNXxXxXNXNXNXxXxXNXxXxXxXxXhXhXxXm.e p I 3 1 4 9 o.C.].|.@X2X~.Z.{.rXdXdXdX%XY.W.~.+X~.R.<.k ( h h  .t.H ; > @ X & & & & ; - & ",
"mXmXxXxXmXNXNXxXcXNXNXmXmXxXxXhXzXm.& L Q e t e I o.N.E.$X].:X~.Y.I.Y.{.$X{.oX).R.#X#X~.R.` k ( g f / e.G 3 a < 3 > > > * - : & ",
"NXNXnXmXNXNXNXxXNXNXNXxXmXNXxXzXcXO.; 0 t a e p ! ( M.'.E.{.+X%XoX).).&X&X&XoX).).2X~.R.2.l b b g d D 8.D z x v x z t t t t a 4 ",
"xXmXxXxXmXNXNXxXxXNXxXxXzXxXhXhXDX+.p p e i : y _ Y =.;XE.].^.%XoX@X#X#X$X#X#XoX_.&XI.I.<.k n ) C d M } ..z x b x x v x v v x h ",
"NXNXNXNXNXZXNXNXNXBXNXNXmXnXmXzXnXO.- e w y 6 q _ ( *. X$X].'.{.@XOXOX>XrX>X%X#X_._.3.Q.*.b n ) V d C G { v x b v x v v v v t 4 ",
"NXNXBXCXNXmXNXNXNXNXNXNXbXMXcXzXxXX.0 M 9 u 3 w ] T =.}.*X<X].E.#X#X#X&X2X2X%XOX2X3.R._.<.( b W c h M } A c b v v v v t v v 4 3 ",
"NXBXNXNXNXNXNXNXNXmXMXNXmXcXcXzXxXO.& & y M & L ) ) M.XX,XwX*X].Y.Y.'.@X&X2X@XOXR.3././.2.;.&.b b f / ../ P v v v v z z t t 3 = ",
"mXNXNXnXNXNXmXNXmXmXmXNXmXmXcXzXcX+.w M : i p r ( o.C.'.;X,XaXpXOX'.W.E.!.!.W.E.-X-X-X3.R.R.F.,.' b ~ X.I x c c v x x v v z t = ",
"cXMXmXmXmXNXmXmXNXMXcXcXmXMXcXzXbX+.> i y 6 > P ,.E.`.}.].*XtXpXyX%X{.|.{.+X:X2X-X-X=X3.R._.=X=X3.;.o.+.z t P P x x z z z v t 3 ",
"xXmXMXcXmXNXmXmXmXbXmXMXMXcXcXzXbXO.: e : ; ! V.*X*XE.|.=X,XtX,XpXyXqXqX<XaX<X<XOX_._.T.~.^.-X,X@X!.B.,.v 2 y e e a a e y p 3 , ",
"mXMXmXMXNXNXmXcXmXmXMXMXcXxXcXzXnXO.= e h &.`..X0X*XE.!.3X,XpXtXpXyXtX<X,X1X-X}.OX-X-XR._./.=X3X+X-X}.C.T , 0 1 > 3 3 > < e > & ",
"cXzXzXMXcXMXMXcXMXMXxXxXxXxXxXxXcX-.. C M..X X'.uX*X=X=X3X=XtXtXpXpXyXtX3XtX3X3X-X-X/.T././.].=X*X=X].W.` > w 8 > e e 0 0 e 6 ; ",
"zXzXzXzXxXxXzXzXzXzXzXzXxXMXxXxXCXO.) F..X'.OX<XuX*X].;X-X3X,XuXyXpXpXpXpXtXtX3X3X3X/.R._.OX/.-XsX*XC.T.' : w 3 0 e y 0 > 0 > > ",
"mXmXcXvXxXlXDXfXfX9X9X9X8X7XH.D.0XF.C.'.'.$X XwXuX,XXX,X,X1XtXqXqXyXpXeXqXeXqX<X<X;X]._.T./._.Q./.iXE.C.` 3 > w 6 6 8 q 6 8 6 8 ",
"O.O.+.+.| { { Q R C U V M U M y I m..X|.>X+XqXwXuXtX|.3X,X,XwXwXwXqXtXtXiXpXqXqX<X1X[.-XT.R.3.P.B.}.qXXX[ * e e 6 e e e 8 6 6 8 ",
"5 5 : - ; ; : ; 7 7 6 7 7 8 q q & Y C.$X$XeX$X%X,XpX;X3X3X<XqXqX,X,XwXqXqXqXqXeXiX3X[.@XR.R.3.3.L.'.pX*X[ = e 6 8 6 e 6 8 6 8 e ",
"5 6 7 7 7 y y y 7 y y q M i y m M 9 g F.wX+X%XqX,XiX3X;X,XtXpXyX<X,X,XqXtXqXqXqX<X;X}.@X_.(.I.I.OX{..X*Xo.< y ; 8 8 8 0 6 8 6 e ",
"7 5 7 0 6 6 7 6 5 q q q q q 7 m q M ; W XX X$X%X*XpX<X=X;X>XqXqXiX<X<XeXpXqXqXtXeX:X[.@X#XoX~.oX@X%X`.0X-.- 9 8 8 6 8 0 6 6 e y ",
"- : : : ; 5 7 6 q M y y q q q q q 7 U ; o.sX X>X0XdXtX|.+X-X:X1X<X<X>XqXeXqXqX<XeX>X+X+X@XOX[.%X%X%X]..XV.* y e e e 8 6 6 e 9 y ",
"6 6 6 5 5 6 8 e y q q 6 7 q q M q q 7 M M C.dXrX0XdXdX|.-X+X+X@X:X:X>X>XqXeX<X1X>X<X:X+X%X+X{.%X%X$X|..XV.1 M 0 8 e 8 6 6 6 e y ",
"5 6 6 6 q p M U w 7 7 q y q 8 7 q w M y 5 _ .XwX0XdXdX}.:X+X#X:X+X:X%X%X>XyXeX%X%X2X:X+X;X+X{.$X%X$X X.X-.8 p q y 8 8 6 8 8 y y "
};
